<svg width="32" height="27" viewBox="0 0 32 27" fill="none" xmlns="http://www.w3.org/2000/svg">
<path d="M0.0305115 23.0073C-0.0365559 21.5774 0.00694243 20.1525 0.161006 18.7349C0.314464 17.3165 0.57609 15.9355 0.944673 14.5914C1.32169 13.2276 1.79662 11.9291 2.37002 10.6958C2.94341 9.46258 3.60323 8.32065 4.34943 7.26926C5.10046 6.20808 5.92159 5.25787 6.81461 4.42101C7.70763 3.58414 8.65382 2.87614 9.65319 2.29787C10.1535 2.00914 10.664 1.75465 11.1837 1.53606C11.7033 1.31666 12.2296 1.13313 12.7631 0.985511C13.296 0.837892 13.8337 0.727782 14.3751 0.653542C14.9171 0.579303 15.4603 0.541794 16.0047 0.541794C16.5491 0.541794 17.0916 0.579303 17.6336 0.653542C18.175 0.727782 18.7128 0.837892 19.2463 0.985511C19.7792 1.13313 20.3061 1.31666 20.8257 1.53606C21.3453 1.75465 21.8553 2.00914 22.3556 2.29787C23.3555 2.87618 24.3017 3.58414 25.1954 4.42101C26.089 5.25869 26.9113 6.20808 27.6624 7.26926C28.4067 8.32143 29.0647 9.46418 29.6369 10.6966C30.2085 11.9299 30.6822 13.2284 31.0574 14.5914C31.4266 15.9355 31.6876 17.3165 31.8411 18.7349C31.9946 20.1533 32.0369 21.5774 31.968 23.0073C31.8991 21.6101 31.7372 20.2324 31.4816 18.8752C31.226 17.5179 30.8816 16.2031 30.4484 14.9307C30.0194 13.6795 29.5082 12.4943 28.9137 11.3736C28.3192 10.2537 27.6521 9.21865 26.9125 8.2684C26.7307 8.0343 26.5452 7.80593 26.3555 7.58407C26.1657 7.36221 25.9724 7.14608 25.7748 6.93643C25.5773 6.72677 25.3766 6.52371 25.1718 6.32634C24.9676 6.12978 24.7597 5.9397 24.5483 5.75621C24.3374 5.5735 24.1229 5.39652 23.9054 5.22687C23.6879 5.05722 23.4674 4.8949 23.2444 4.73909C23.0208 4.5841 22.7955 4.43566 22.5671 4.29456C22.3387 4.15427 22.1079 4.02049 21.8747 3.89408C21.6414 3.76845 21.4064 3.64937 21.169 3.53844C20.9315 3.42751 20.6922 3.32473 20.4511 3.22932C20.2107 3.13309 19.9678 3.04579 19.7236 2.96586C19.4796 2.88593 19.2342 2.81333 18.9877 2.74969C18.7412 2.68524 18.4935 2.62898 18.2452 2.58086C17.9962 2.53275 17.7473 2.49197 17.4971 2.46015C17.247 2.42751 16.9968 2.40307 16.7461 2.38755C16.4948 2.37125 16.244 2.36306 15.9927 2.36306C15.7419 2.36306 15.4905 2.37121 15.2398 2.38755C14.9891 2.40302 14.7383 2.42751 14.4882 2.46015C14.2386 2.49197 13.9891 2.53275 13.7408 2.58086C13.4918 2.62898 13.2441 2.68528 12.9976 2.74969C12.7511 2.81333 12.5058 2.88589 12.2617 2.96586C12.0176 3.04579 11.7753 3.13305 11.5342 3.22932C11.2931 3.32477 11.0538 3.42751 10.817 3.53844C10.5795 3.64937 10.3445 3.76845 10.1113 3.89408C9.87805 4.02049 9.64724 4.15427 9.41886 4.29456C9.19048 4.43566 8.9645 4.5841 8.74154 4.73909C8.51799 4.8949 8.29804 5.05718 8.08055 5.22687C7.86305 5.39656 7.64854 5.57354 7.43705 5.75621C7.22617 5.93974 7.01833 6.12978 6.81351 6.32634C6.60928 6.52371 6.40808 6.72681 6.21051 6.93643C6.01353 7.14604 5.81958 7.36221 5.62987 7.58407C5.44016 7.80593 5.25464 8.0343 5.07279 8.2684C4.33566 9.21947 3.67102 10.2553 3.07827 11.3752C2.48495 12.4959 1.97498 13.681 1.54719 14.9306C1.11457 16.2031 0.770771 17.5179 0.515787 18.8751C0.260712 20.2324 0.0987923 21.6101 0.0305115 23.0073Z" fill="#FFF6F6"/>
<path d="M31.3345 22.523C31.3345 22.523 31.2961 22.4394 31.2316 22.3565V21.4693C31.2316 21.4693 31.1998 21.354 31.1222 21.3036C31.1222 21.3036 30.9614 20.1345 30.6977 19.2538C30.6977 19.2538 30.5434 18.4552 29.2642 18.2066H24.6788C24.6788 18.2066 24.6151 18.2066 24.5507 18.2317C24.576 18.1683 24.6405 18.1237 24.7115 18.1237L28.2283 18.0408C28.1965 17.8109 28.0226 17.7337 27.7915 17.7337H24.1458C24.0037 17.7337 23.8625 17.7467 23.7278 17.7849L17.291 19.937L23.3417 18.807L23.3548 19.4837L17.464 20.9518L23.367 20.2239L23.3801 20.7926L17.3293 21.9414L23.3931 21.6798L23.4062 22.2671L17.4387 22.9829L23.425 23.2697L23.438 23.9148L17.4771 24.0935L23.8944 24.936C23.8944 24.936 23.8307 23.71 24.3189 23.4363C24.3189 23.2892 24.3189 23.078 24.3189 22.8294C24.3385 22.8358 24.3638 22.8424 24.3899 22.8424V23.104C24.3899 23.104 24.3899 23.1422 24.4283 23.1552V23.5508C24.4283 23.5508 23.9458 23.7807 24.0364 25.1026C24.0364 25.1026 24.2291 25.1473 24.3124 25.1594C24.3001 24.962 24.3001 24.6874 24.3001 24.6874C24.3385 24.0488 24.4928 23.8953 24.4928 23.8953C24.7181 23.5573 25.0781 23.6783 25.0781 23.6783C24.8658 23.6914 24.6601 23.8636 24.5956 23.9595C24.3581 24.3104 24.3769 24.8531 24.4095 25.1594C24.4152 25.2301 24.4479 25.339 24.4862 25.447L20.7441 25.0643L24.9752 26.1555L25.5026 26.1433H25.5148C25.5148 26.1433 25.8814 26.1368 25.9973 25.6574L28.7173 25.6193C28.7173 25.6193 28.9361 25.9646 29.2251 25.958H29.7655C29.7655 25.958 29.9973 25.9385 30.1834 25.6127L30.8202 25.5624C30.8202 25.5624 31.1541 25.5299 31.1802 25.326V23.4102C31.1867 23.4102 31.3214 23.4297 31.3214 23.2185C31.3214 23.1998 31.3214 22.5295 31.3214 22.5295L31.3345 22.523ZM30.5051 19.3748C30.5051 19.3748 30.6913 20.0963 30.8137 21.3036C30.8137 21.3036 27.8683 21.4116 26.8593 21.3483C26.8593 21.3483 26.7818 19.9882 26.7172 19.4065L30.5051 19.3814V19.3748H30.5051ZM30.6594 22.3947L27.9589 22.4524L27.5663 22.1843L27.9908 22.2866L30.6659 22.2485L30.7941 22.1843L30.6594 22.3947ZM30.7304 22.714L30.5949 22.9252L28.1001 22.9951L27.7589 22.74L28.1516 22.848L30.6014 22.7781L30.7304 22.714ZM27.2446 23.4037L27.1418 23.3461C27.1099 23.3274 27.0903 23.2957 27.0903 23.2632L27.0715 22.7586C27.0715 22.7269 27.1034 22.6888 27.1287 22.7083L27.2193 22.7716C27.2193 22.7847 27.2446 23.4102 27.2446 23.4102V23.4037H27.2446ZM26.1516 18.7046C26.1516 18.7046 26.2479 18.6916 26.2675 18.7744V19.0555C26.2675 19.0555 26.203 19.1644 26.0683 19.1449L25.2511 19.1067L26.1581 19.0239V18.8191L24.9622 18.7939L26.1516 18.7111V18.7046ZM25.1744 25.46C25.1295 25.5234 25.0715 25.5624 25.0136 25.5624C24.8332 25.5681 24.6789 25.2813 24.6601 24.9173C24.6405 24.5533 24.7695 24.247 24.9491 24.2405C25.0332 24.2405 25.1099 24.2974 25.1744 24.4062C25.1613 24.4062 25.1483 24.4062 25.136 24.4062C24.994 24.4127 24.8911 24.6557 24.9042 24.949C24.9173 25.2301 25.0389 25.46 25.1744 25.4665V25.46ZM25.7597 23.8636C25.4634 23.1673 24.6601 23.3144 24.6601 23.3144V23.1039C25.7336 23.0146 25.7719 23.8953 25.7597 23.8636ZM24.5376 22.6189L25.9785 22.523V22.0697L24.3638 21.6675L26.2544 21.9738V22.7083L24.5311 22.6189H24.5376ZM24.9622 20.8754C24.705 20.8372 24.7181 20.4984 24.7181 20.4984V19.4512L26.3638 19.4195L26.4022 21.284L24.9622 20.8754ZM26.5891 24.5533C26.5507 24.5533 26.5181 24.5216 26.5181 24.4826V24.1065C26.5181 24.0683 26.5507 24.0358 26.5891 24.0358H27.4634C27.9197 24.0553 27.901 24.5468 27.901 24.5468H26.5891V24.5533ZM30.55 23.4037L28.2349 23.4996L27.8749 23.251L28.2675 23.359L30.5696 23.2827L30.6978 23.2185L30.5565 23.4037H30.55ZM31.1026 24.3746C31.1026 24.4063 31.0774 24.4323 31.0455 24.4323H30.7174C30.7174 23.9789 31.0063 23.9399 31.0063 23.9399L31.1157 23.9147V24.3681L31.1026 24.3746ZM31.1737 23.225C31.1737 23.225 31.1672 23.3079 30.9998 23.3208V22.7464C30.9998 22.7205 31.0129 22.6888 31.039 22.6758L31.1157 22.6246C31.1418 22.6124 31.1736 22.6246 31.1736 22.6571V23.225H31.1737ZM17.8183 16.0162H10.3652C10.2435 16.0162 10.1472 16.112 10.1472 16.2331V17.8555C9.18231 18.0343 8.36597 18.2195 7.74229 18.3658V18.2317H6.02469C5.91612 18.2317 5.82551 18.3211 5.82551 18.4299V18.7427C5.6908 18.8963 5.56183 19.0872 5.56183 19.0872L5.05404 20.1223C4.83528 20.7096 4.20504 21.0923 4.20504 21.0923L4.00586 21.1695V20.4025H2.81645C2.70707 20.4025 2.61727 20.4919 2.61727 20.6007V21.6927L0.796844 22.3824V21.2523C0.796844 21.137 0.854793 21.0346 0.951964 20.9712L2.22465 20.1604C2.27609 20.1287 2.33404 20.1092 2.39854 20.1092H4.00594V19.075C4.00594 18.9596 4.06389 18.8581 4.16024 18.7939L5.43375 17.983C5.48519 17.9514 5.54314 17.9319 5.60682 17.9319H7.74237V17.1527C7.74237 17.0317 7.80606 16.9163 7.90888 16.8529L9.71628 15.748C9.77423 15.7163 9.83792 15.6968 9.90243 15.6968H18.0111C18.2103 15.6968 18.3711 15.8569 18.3711 16.0543V17.3315C18.2552 17.2998 18.1401 17.2746 18.0307 17.2551V16.2274C18.0307 16.1055 17.9336 16.0096 17.812 16.0096L17.8183 16.0162Z" fill="#FFF6F6"/>
<path d="M10.4557 26.3472C10.4557 26.3472 9.65165 26.309 9.51694 26.4365C9.51694 26.4365 8.70629 26.7112 7.99937 26.3732C7.99937 26.3732 8.55203 26.4625 9.25329 26.296C9.25329 26.296 9.69005 26.1432 10.4623 26.3472H10.4557Z" fill="#ECE4E4"/>
<path d="M21.927 19.7323C20.3964 22.497 19.1555 22.2419 17.9596 24.7061C17.9596 24.7061 17.4967 24.1252 17.0853 23.8124C17.0853 23.8124 16.7122 23.4167 16.5963 22.9764C16.5963 22.9764 16.5196 23.5573 16.8796 23.9529C17.407 24.5468 17.7409 25.1025 17.7988 25.473C17.8119 25.5429 17.8053 25.6071 17.7988 25.6639H17.4902C17.5155 25.6639 17.5417 25.6639 17.5678 25.6704C18.8919 25.8491 20.1327 25.8752 20.1327 25.8752C19.1303 26.1619 18.0045 26.1051 16.9433 25.9515C15.9857 25.8174 15.0788 25.6127 14.3653 25.5299C13.5808 25.4405 12.7897 25.6452 12.224 25.8491C11.7163 26.0409 11.0085 26.2391 11.0085 26.2391C11.131 26.0921 11.4845 25.9198 11.6257 25.811C11.78 25.7216 11.9408 25.6452 12.1016 25.581L6.22477 25.4982C7.27865 25.7915 8.34642 26.0279 8.34642 26.0279C6.87374 25.9133 4.61086 25.473 4.61086 25.473H4.60434C2.59125 25.0383 1.92265 24.9359 1.22795 25.1537C0.765086 25.2934 0.552835 25.46 0.514474 25.4916C0.636932 25.3064 0.79693 25.1537 0.983854 25.0318C0.700579 24.7385 -0.0128963 23.9017 0.000177288 22.9438L4.22476 21.3929C4.22476 21.3929 4.91946 21.2588 5.13741 20.6714L5.66478 19.6494C5.66478 19.6494 5.80683 19.1578 6.53337 18.9856C7.46562 18.7687 11.3237 17.7214 16.4487 17.4468C16.9434 17.4208 17.4389 17.4468 17.9213 17.5297C18.8667 17.6954 20.2936 18.2706 21.6831 18.8962C21.9982 19.0425 22.1076 19.4259 21.9402 19.7323L21.927 19.7323Z" fill="#ECE4E4"/>
<path d="M8.33979 19.1132L7.27857 19.3562L7.24673 19.7705L8.28183 19.5284L8.33327 19.1132H8.33979Z" fill="#F8F8F8"/>
<path d="M9.81247 18.7939L8.75126 19.0369L8.69982 19.4577L9.76104 19.2156L9.81903 18.8004L9.81247 18.7939Z" fill="#F8F8F8"/>
<path d="M29.2108 5.75179C29.2687 6.71617 26.4393 7.62936 26.4393 7.62936C26.4393 7.62936 23.2433 8.70178 20.6392 9.44843L20.3951 9.50611V9.51912C19.3919 9.80023 18.4914 10.0237 17.9322 10.1065C15.8873 10.4063 14.2538 10.1382 14.0929 10.1252C13.9321 10.113 13.9068 10.0553 13.9068 10.0553L13.8554 9.89526C13.8358 9.81891 13.9582 9.8059 13.9582 9.8059L11.4439 9.30788L11.8815 9.18034L14.3958 9.38509L13.7525 7.5652L14.1387 7.46282L16.0285 8.88704L18.453 8.12741L17.964 7.79512L13.1868 5.94357L14.4276 5.41954L21.951 6.79256C21.951 6.79256 27.0564 5.24081 27.2368 5.22861C27.6547 5.15793 28.0148 5.34318 28.0148 5.34318C27.9372 5.33017 27.6099 5.37488 27.6099 5.37488C27.3649 5.42606 27.4425 5.58611 27.4425 5.58611C28.3038 5.34971 28.9087 5.47725 29.0817 5.54141C29.2621 5.61128 29.2107 5.74535 29.2107 5.74535V5.75179H29.2108Z" fill="#ECE4E4"/>
<path d="M23.565 6.74134C23.565 6.69664 23.5331 6.67795 23.4882 6.69015L23.4303 6.70964C23.3854 6.72266 23.3528 6.76732 23.3528 6.81202V6.93308C23.3528 6.97778 23.3854 6.99646 23.4238 6.98427L23.4817 6.96477C23.5266 6.95176 23.5584 6.9071 23.5584 6.8624V6.74134H23.565Z" fill="white"/>
<path d="M24.1054 6.5626C24.1054 6.5179 24.0727 6.4984 24.0279 6.51141L23.9699 6.53091C23.925 6.54311 23.8932 6.58777 23.8932 6.63329V6.75434C23.8932 6.79904 23.925 6.81773 23.9634 6.80553L24.0214 6.78604C24.0663 6.77302 24.0989 6.72836 24.0989 6.68366V6.5626H24.1054Z" fill="white"/>
<path d="M24.645 6.38387C24.645 6.33917 24.6131 6.31968 24.5683 6.33269L24.5103 6.35218C24.4654 6.36438 24.4328 6.40904 24.4328 6.45374V6.57562C24.4328 6.62032 24.4654 6.639 24.5038 6.6268L24.5617 6.60731C24.6067 6.5943 24.6393 6.54963 24.6393 6.50493V6.38387H24.645Z" fill="white"/>
<path d="M25.1854 6.20514C25.1854 6.16044 25.1536 6.14094 25.1087 6.15395L25.0508 6.17345C25.0058 6.18564 24.9732 6.23031 24.9732 6.27501V6.39688C24.9732 6.44159 25.0059 6.46027 25.0442 6.44807L25.1022 6.42857C25.1471 6.41556 25.1789 6.3709 25.1789 6.3262V6.20514H25.1854Z" fill="white"/>
<path d="M25.7258 6.02641C25.7258 5.98171 25.6932 5.96221 25.6483 5.97522L25.5903 5.99472C25.5454 6.00691 25.5136 6.05158 25.5136 6.09628V6.21815C25.5136 6.26285 25.5455 6.28153 25.5838 6.26934L25.6418 6.24984C25.6867 6.23683 25.7193 6.19217 25.7193 6.14747V6.02641H25.7258Z" fill="white"/>
<path d="M26.2654 5.84764C26.2654 5.80293 26.2336 5.78344 26.1887 5.79645L26.1307 5.81594C26.0858 5.82814 26.0532 5.8728 26.0532 5.9175V6.03938C26.0532 6.08408 26.0859 6.10276 26.1242 6.08975L26.1822 6.07107C26.2271 6.05806 26.2597 6.0134 26.2597 5.96869V5.84764H26.2654Z" fill="white"/>
<path d="M20.138 10.8019L20.9609 10.6232L22.8703 8.92517L20.6392 9.44839C20.5559 9.47438 20.4719 9.4931 20.3951 9.51908L20.138 10.8084V10.8019Z" fill="#ECE4E4"/>
</svg>
