<svg width="328" height="60" viewBox="0 0 328 60" fill="none" xmlns="http://www.w3.org/2000/svg">
<path d="M0 34.5L9 43.5L6.75 54L18 51.75L24.75 59.25V34.5H0Z" fill="white"/>
<path d="M30 60C35.9334 60 41.7336 58.2405 46.6671 54.9441C51.6006 51.6476 55.4457 46.9623 57.7164 41.4805C59.987 35.9987 60.5811 29.9667 59.4236 24.1473C58.266 18.3279 55.4088 12.9824 51.2132 8.7868C47.0176 4.59122 41.6721 1.734 35.8527 0.576442C30.0333 -0.581115 24.0013 0.0129842 18.5195 2.28361C13.0377 4.55424 8.35236 8.39941 5.05591 13.3329C1.75947 18.2664 8.95925e-07 24.0666 0 30L30 29.25V60Z" fill="white"/>
<g filter="url(#filter0_i_67_244)">
<path d="M30 60V29.25C38.2287 29.25 59.9224 29.2816 58.4263 38.7897C56.9302 48.2978 45.7093 60 30 60Z" fill="white"/>
</g>
<path d="M84.81 44.5H76.35V14.35H103.305V21.955H84.81V26.455H102.63V34.015H84.81V44.5ZM113.99 44.5H105.53V21.82H113.45V27.76H113.9C114.53 24.025 116.87 21.37 121.37 21.37C126.365 21.37 128.345 24.655 128.345 29.2V33.7H119.885V31.045C119.885 29.155 119.165 28.48 116.96 28.48C114.665 28.48 113.99 29.155 113.99 30.955V44.5ZM142.784 44.95C135.089 44.95 129.689 41.665 129.689 33.16C129.689 25.78 135.044 21.37 142.604 21.37C150.434 21.37 155.429 25.285 155.429 32.575C155.429 33.34 155.384 33.925 155.294 34.735H137.519C137.654 37.48 138.869 38.245 142.469 38.245C145.889 38.245 146.789 37.66 146.789 36.31V35.815H155.249V36.355C155.249 41.395 150.434 44.95 142.784 44.95ZM142.424 27.85C139.319 27.85 138.014 28.525 137.654 30.46H147.239C146.924 28.525 145.574 27.85 142.424 27.85ZM166.153 19.75H157.693V14.35H166.153V19.75ZM166.153 44.5H157.693V21.82H166.153V44.5ZM178.935 41.98C172.185 41.98 168.405 38.11 168.405 31.63C168.405 25.24 172.455 21.37 179.16 21.37C183.75 21.37 186.81 23.215 187.44 27.13H187.89V21.82H195.81V40.675C195.81 48.775 190.995 52.6 182.265 52.6C174.345 52.6 169.755 49.27 169.755 43.33H178.215C178.215 45.175 178.44 45.625 182.85 45.625C186.495 45.625 187.35 45.085 187.35 41.26V36.49H186.9C186.315 39.775 183.93 41.98 178.935 41.98ZM176.955 31.63C176.955 33.88 178.035 34.735 181.995 34.735C185.775 34.735 187.35 34.285 187.35 31.9V31.585C187.35 29.155 185.775 28.66 181.995 28.66C178.035 28.66 176.955 29.425 176.955 31.63ZM206.978 44.5H198.518V14.35H206.978V28.705H207.428C208.148 24.88 210.668 21.37 216.473 21.37C222.503 21.37 225.383 25.195 225.383 30.235V44.5H216.923V33.07C216.923 29.92 215.708 28.93 211.838 28.93C207.923 28.93 206.978 29.875 206.978 32.8V44.5ZM244.882 44.5H238.942C233.272 44.5 229.897 41.755 229.897 35.86V28.75H226.567V21.82H229.897V17.905H238.357V21.82H244.882V28.75H238.357V34.645C238.357 36.445 238.897 36.895 240.832 36.895H244.882V44.5ZM259.457 44.95C251.582 44.95 246.227 40.495 246.227 33.16C246.227 25.78 251.582 21.37 259.457 21.37C267.332 21.37 272.687 25.78 272.687 33.16C272.687 40.495 267.332 44.95 259.457 44.95ZM259.457 37.48C263.282 37.48 264.317 36.445 264.317 33.16C264.317 29.875 263.282 28.795 259.457 28.795C255.632 28.795 254.597 29.875 254.597 33.16C254.597 36.445 255.632 37.48 259.457 37.48ZM283.179 44.5H274.719V21.82H282.639V27.76H283.089C283.719 24.025 286.059 21.37 290.559 21.37C295.554 21.37 297.534 24.655 297.534 29.2V33.7H289.074V31.045C289.074 29.155 288.354 28.48 286.149 28.48C283.854 28.48 283.179 29.155 283.179 30.955V44.5ZM304.324 52.15H300.229V44.5H306.799C307.474 44.5 308.014 44.41 308.374 44.23L297.529 21.82H307.159L311.074 30.73L312.694 35.95H313.279L314.764 30.64L318.139 21.82H327.589L316.834 45.4C314.404 50.755 310.939 52.15 304.324 52.15Z" fill="white"/>
<defs>
<filter id="filter0_i_67_244" x="30" y="29.25" width="28.5" height="33.75" filterUnits="userSpaceOnUse" color-interpolation-filters="sRGB">
<feFlood flood-opacity="0" result="BackgroundImageFix"/>
<feBlend mode="normal" in="SourceGraphic" in2="BackgroundImageFix" result="shape"/>
<feColorMatrix in="SourceAlpha" type="matrix" values="0 0 0 0 0 0 0 0 0 0 0 0 0 0 0 0 0 0 127 0" result="hardAlpha"/>
<feOffset dy="3"/>
<feGaussianBlur stdDeviation="15"/>
<feComposite in2="hardAlpha" operator="arithmetic" k2="-1" k3="1"/>
<feColorMatrix type="matrix" values="0 0 0 0 0.281161 0 0 0 0 0.238295 0 0 0 0 0.238295 0 0 0 0.2 0"/>
<feBlend mode="normal" in2="shape" result="effect1_innerShadow_67_244"/>
</filter>
</defs>
</svg>
