<svg width="308" height="80" viewBox="0 0 308 80" fill="none" xmlns="http://www.w3.org/2000/svg">
<path d="M0.112565 56.1637C-0.134864 52.5891 0.0256124 49.0268 0.593994 45.4827C1.16014 41.9366 2.12535 38.4844 3.48514 35.124C4.87605 31.7145 6.6282 28.4682 8.7436 25.3851C10.859 22.302 13.2932 19.4471 16.0462 16.8187C18.8169 14.1657 21.8463 11.7902 25.1408 9.69803C28.4354 7.60587 31.9262 5.83587 35.6131 4.39019C37.4588 3.66837 39.3423 3.03213 41.2594 2.48567C43.1764 1.93717 45.118 1.47834 47.0863 1.10929C49.0524 0.740246 51.0362 0.46497 53.0335 0.279371C55.033 0.0937724 57.0369 0 59.0453 0C61.0538 0 63.0555 0.0937724 65.055 0.279371C67.0523 0.46497 69.0362 0.740246 71.0045 1.10929C72.9706 1.47834 74.9144 1.93717 76.8314 2.48567C78.7484 3.03213 80.6298 3.66837 82.4755 4.39019C86.1646 5.83598 89.6554 7.60587 92.9522 9.69803C96.249 11.7922 99.2829 14.1657 102.054 16.8187C104.8 19.4491 107.227 22.306 109.338 25.3871C111.447 28.4702 113.195 31.7165 114.579 35.124C115.941 38.4844 116.904 41.9366 117.47 45.4827C118.036 49.0287 118.192 52.5891 117.938 56.1637C117.684 52.6707 117.087 49.2266 116.144 45.8334C115.201 42.4403 113.93 39.1532 112.332 35.9722C110.749 32.8441 108.864 29.8813 106.67 27.0795C104.477 24.2798 102.016 21.6921 99.2873 19.3165C98.6163 18.7313 97.932 18.1603 97.2321 17.6057C96.5321 17.051 95.8188 16.5107 95.09 15.9866C94.3611 15.4624 93.621 14.9548 92.8653 14.4614C92.1119 13.97 91.3451 13.4948 90.565 13.036C89.787 12.5793 88.9957 12.1368 88.1932 11.7127C87.3907 11.2886 86.5771 10.8828 85.7546 10.4932C84.9298 10.1058 84.0984 9.73468 83.2558 9.38191C82.4132 9.03118 81.5617 8.69674 80.7013 8.38072C79.8408 8.06664 78.9737 7.76895 78.0977 7.49163C77.2217 7.2143 76.339 6.95735 75.4495 6.71883C74.5623 6.47825 73.6663 6.26 72.7656 6.06017C71.8651 5.86034 70.9601 5.67884 70.0506 5.51975C69.1411 5.35862 68.2272 5.21796 67.3111 5.09768C66.3927 4.97739 65.4744 4.87543 64.5514 4.79589C63.6287 4.7143 62.7058 4.65318 61.7807 4.61438C60.8535 4.57364 59.9283 4.55316 59.001 4.55316C58.076 4.55316 57.1486 4.57353 56.2236 4.61438C55.2985 4.65308 54.3734 4.7143 53.4506 4.79589C52.5299 4.87543 51.6094 4.97739 50.6932 5.09768C49.7748 5.21796 48.8609 5.35872 47.9514 5.51975C47.042 5.67884 46.137 5.86024 45.2364 6.06017C44.3359 6.26 43.442 6.47815 42.5526 6.71883C41.6632 6.95745 40.7805 7.2143 39.9067 7.49163C39.0307 7.76895 38.1635 8.06664 37.3031 8.38072C36.4427 8.69674 35.5912 9.03118 34.7486 9.38191C33.9061 9.73468 33.0723 10.1058 32.2498 10.4932C31.425 10.8828 30.6136 11.2885 29.8112 11.7127C29.0088 12.1369 28.2174 12.5794 27.4372 13.036C26.6592 13.4949 25.8924 13.97 25.1368 14.4614C24.3833 14.9548 23.6411 15.4626 22.9122 15.9866C22.1855 16.5106 21.4699 17.051 20.77 17.6057C20.0702 18.1603 19.3857 18.7313 18.7148 19.3165C15.9954 21.6942 13.5433 24.2839 11.3565 27.0835C9.16762 29.8853 7.28621 32.8481 5.70797 35.9721C4.11194 39.1532 2.84357 42.4402 1.90287 45.8333C0.961835 49.2266 0.36447 52.6707 0.112565 56.1637Z" fill="#BCB7EE"/>
<path d="M116.828 65.025C116.828 65.025 116.687 64.7148 116.449 64.4078V61.12C116.449 61.12 116.331 60.6925 116.045 60.5058C116.045 60.5058 115.452 56.1733 114.479 52.9094C114.479 52.9094 113.91 49.9497 109.19 49.0283H92.2738C92.2738 49.0283 92.0388 49.0283 91.801 49.1216C91.8944 48.8867 92.1323 48.7211 92.3943 48.7211L105.369 48.414C105.251 47.5619 104.61 47.2759 103.757 47.2759H90.3072C89.7831 47.2759 89.2621 47.3242 88.7653 47.4656L65.0181 55.4414L87.3407 51.2533L87.3889 53.7614L65.6566 59.2021L87.4341 56.5045L87.4824 58.612L65.1596 62.8693L87.5304 61.8998L87.5787 64.0766L65.5631 66.7292L87.6479 67.792L87.6962 70.1827L65.7048 70.845L89.3797 73.9673C89.3797 73.9673 89.1448 69.4239 90.9458 68.4093C90.9458 67.8644 90.9458 67.0816 90.9458 66.1601C91.0181 66.1842 91.1115 66.2084 91.2079 66.2084V67.1779C91.2079 67.1779 91.2079 67.3193 91.3494 67.3676V68.8338C91.3494 68.8338 89.5695 69.6858 89.9038 74.5845C89.9038 74.5845 90.6146 74.7502 90.9218 74.7952C90.8766 74.0636 90.8766 73.0459 90.8766 73.0459C91.0181 70.6794 91.5874 70.1103 91.5874 70.1103C92.4187 68.8578 93.7468 69.3064 93.7468 69.3064C92.9637 69.3547 92.2049 69.993 91.9669 70.3482C91.0905 71.6489 91.1598 73.6602 91.2801 74.7952C91.3011 75.0572 91.4217 75.4606 91.5632 75.861L77.7575 74.4428L93.3671 78.4864L95.3127 78.4412H95.3579C95.3579 78.4412 96.7102 78.4172 97.1378 76.6408L107.173 76.4993C107.173 76.4993 107.98 77.779 109.046 77.7548H111.04C111.04 77.7548 111.895 77.6826 112.582 76.4751L114.931 76.2885C114.931 76.2885 116.163 76.168 116.259 75.4124V68.3127C116.283 68.3127 116.78 68.385 116.78 67.6021C116.78 67.5329 116.78 65.049 116.78 65.049L116.828 65.025ZM113.768 53.3578C113.768 53.3578 114.455 56.0315 114.907 60.5057C114.907 60.5057 104.041 60.9061 100.318 60.6712C100.318 60.6712 100.032 55.6311 99.794 53.4753L113.768 53.382V53.3578H113.768ZM114.338 64.5493L104.375 64.763L102.926 63.7695L104.492 64.1489L114.362 64.0074L114.835 63.7695L114.338 64.5493ZM114.6 65.7325L114.1 66.5153L104.896 66.7743L103.637 65.8288L105.086 66.2292L114.124 65.9703L114.6 65.7325ZM101.74 68.2887L101.36 68.075C101.243 68.0057 101.17 67.8883 101.17 67.7678L101.101 65.898C101.101 65.7806 101.219 65.6391 101.312 65.7114L101.646 65.9462C101.646 65.9945 101.739 68.3127 101.739 68.3127V68.2887H101.74ZM97.7071 50.8739C97.7071 50.8739 98.0624 50.8257 98.1347 51.1328V52.1746C98.1347 52.1746 97.8967 52.578 97.3998 52.5058L94.3851 52.3643L97.7311 52.0572V51.2984L93.319 51.2051L97.7071 50.8979V50.8739ZM94.1021 75.9092C93.9364 76.1441 93.7226 76.2886 93.5088 76.2886C92.8432 76.3096 92.274 75.2468 92.2047 73.8979C92.1324 72.549 92.6082 71.414 93.2708 71.3898C93.581 71.3898 93.8641 71.6005 94.1021 72.004C94.0538 72.004 94.0058 72.004 93.9605 72.004C93.4365 72.028 93.057 72.9283 93.1052 74.0152C93.1535 75.057 93.6022 75.9091 94.1021 75.9331V75.9092ZM96.2615 69.9928C95.1682 67.4125 92.2047 67.9575 92.2047 67.9575V67.1777C96.165 66.8465 96.3065 70.1103 96.2615 69.9928ZM91.7529 65.3802L97.0686 65.025V63.3449L91.1114 61.8545L98.0864 62.9895V65.7114L91.7287 65.3802H91.7529ZM93.319 58.9189C92.3704 58.7774 92.4185 57.5219 92.4185 57.5219V53.6408L98.4901 53.5234L98.6316 60.4333L93.319 58.9189ZM99.3213 72.549C99.1797 72.549 99.0592 72.4316 99.0592 72.2871V70.893C99.0592 70.7515 99.1797 70.631 99.3213 70.631H102.547C104.23 70.7033 104.161 72.5248 104.161 72.5248H99.3213V72.549ZM113.934 68.2887L105.393 68.6439L104.065 67.7226L105.513 68.123L114.006 67.8401L114.479 67.6021L113.958 68.2887H113.934ZM115.973 71.8867C115.973 72.0041 115.88 72.1004 115.762 72.1004H114.551C114.551 70.4203 115.618 70.2758 115.618 70.2758L116.021 70.1824V71.8625L115.973 71.8867ZM116.235 67.6263C116.235 67.6263 116.211 67.9335 115.593 67.9816V65.8528C115.593 65.7565 115.642 65.6391 115.738 65.5909L116.021 65.4012C116.117 65.356 116.235 65.4012 116.235 65.5217V67.6263H116.235ZM66.9637 40.9109H39.467C39.0182 40.9109 38.6629 41.2662 38.6629 41.7148V47.7274C35.1031 48.3898 32.0914 49.0764 29.7905 49.6183V49.1214H23.4538C23.0533 49.1214 22.719 49.4526 22.719 49.856V51.0152C22.222 51.5843 21.7462 52.2919 21.7462 52.2919L19.8729 56.1278C19.0658 58.3046 16.7407 59.7227 16.7407 59.7227L16.0059 60.0087V57.1664H11.6178C11.2143 57.1664 10.883 57.4975 10.883 57.901V61.9476L4.16698 64.5038V60.3157C4.16698 59.8882 4.38077 59.5088 4.73925 59.2739L9.43453 56.2691C9.62429 56.1517 9.83808 56.0794 10.0761 56.0794H16.0062V52.2466C16.0062 51.8191 16.22 51.4427 16.5754 51.2048L21.2737 48.2C21.4635 48.0825 21.6773 48.0103 21.9122 48.0103H29.7908V45.1229C29.7908 44.6743 30.0258 44.2468 30.4051 44.0119L37.0731 39.9171C37.2869 39.7996 37.5218 39.7274 37.7598 39.7274H67.6749C68.4097 39.7274 69.0031 40.3205 69.0031 41.0521V45.7852C68.5755 45.6678 68.1507 45.5745 67.7472 45.5023V41.6935C67.7472 41.2418 67.3889 40.8866 66.9401 40.8866L66.9637 40.9109Z" fill="#BCB7EE"/>
<path d="M39.8011 79.197C39.8011 79.197 36.8346 79.0555 36.3376 79.5282C36.3376 79.5282 33.347 80.5459 30.739 79.2933C30.739 79.2933 32.7778 79.6244 35.365 79.0073C35.365 79.0073 36.9763 78.4412 39.8253 79.197H39.8011Z" fill="#796FDD"/>
<path d="M82.1215 54.6826C76.4746 64.9285 71.8968 63.9832 67.4847 73.1151C67.4847 73.1151 65.7771 70.9624 64.2592 69.8032C64.2592 69.8032 62.8829 68.3368 62.4553 66.7049C62.4553 66.7049 62.1722 68.8577 63.5004 70.324C65.446 72.525 66.6778 74.5844 66.8916 75.9573C66.9398 76.2162 66.9156 76.4542 66.8916 76.6649H65.7532C65.8465 76.6649 65.9429 76.6649 66.0393 76.6889C70.9243 77.3513 75.5019 77.4477 75.5019 77.4477C71.8036 78.5105 67.6504 78.2998 63.7353 77.7307C60.2026 77.2338 56.8566 76.4752 54.2244 76.168C51.3302 75.8368 48.4118 76.5955 46.3248 77.3513C44.4515 78.0618 41.8405 78.7965 41.8405 78.7965C42.2922 78.2515 43.5963 77.6132 44.1173 77.2098C44.6866 76.8786 45.2799 76.5956 45.8732 76.3577L24.192 76.0506C28.08 77.1375 32.0193 78.0136 32.0193 78.0136C26.5862 77.589 18.2378 75.9572 18.2378 75.9572H18.2138C10.787 74.3463 8.32035 73.9669 5.75741 74.7739C4.04979 75.2918 3.26674 75.9091 3.12522 76.0264C3.57699 75.3398 4.16727 74.7739 4.85688 74.3222C3.8118 73.2353 1.17961 70.1342 1.22784 66.5843L16.8134 60.8366C16.8134 60.8366 19.3763 60.3397 20.1804 58.163L22.126 54.3753C22.126 54.3753 22.6501 52.5537 25.3305 51.9154C28.7698 51.1115 43.0032 47.2305 61.9105 46.2127C63.7356 46.1164 65.5637 46.2127 67.3436 46.5199C70.8311 47.134 76.0957 49.2658 81.2216 51.5842C82.3841 52.1261 82.7877 53.5473 82.1703 54.6824L82.1215 54.6826Z" fill="#796FDD"/>
<path d="M31.9948 52.3883L28.0797 53.2886L27.9622 54.8241L31.781 53.9268L31.9708 52.3883H31.9948Z" fill="#F8F8F8"/>
<path d="M37.4279 51.2051L33.5128 52.1054L33.3231 53.6649L37.2382 52.7678L37.4521 51.2292L37.4279 51.2051Z" fill="#F8F8F8"/>
<path d="M107.766 19.3079C107.98 22.8819 97.5414 26.2661 97.5414 26.2661C97.5414 26.2661 85.7506 30.2404 76.1434 33.0075L75.2429 33.2212V33.2694C71.5416 34.3112 68.2196 35.1392 66.1565 35.4462C58.6122 36.5572 52.5858 35.5637 51.9925 35.5155C51.3992 35.4703 51.3058 35.2565 51.3058 35.2565L51.116 34.6634C51.0438 34.3804 51.4955 34.3322 51.4955 34.3322L42.2196 32.4866L43.8339 32.0139L53.1099 32.7727L50.7367 26.0283L52.1613 25.6489L59.1333 30.927L68.0779 28.1118L66.2739 26.8804L48.6494 20.0187L53.2272 18.0766L80.9829 23.165C80.9829 23.165 99.818 17.4143 100.484 17.3691C102.025 17.1071 103.354 17.7937 103.354 17.7937C103.068 17.7454 101.86 17.9111 101.86 17.9111C100.956 18.1008 101.243 18.6939 101.243 18.6939C104.42 17.8179 106.652 18.2905 107.29 18.5283C107.956 18.7872 107.766 19.2841 107.766 19.2841V19.3079H107.766Z" fill="#796FDD"/>
<path d="M86.9372 22.9751C86.9372 22.8095 86.8198 22.7402 86.6542 22.7854L86.4404 22.8577C86.2747 22.9059 86.1543 23.0714 86.1543 23.2371V23.6857C86.1543 23.8514 86.2748 23.9206 86.4164 23.8754L86.6301 23.8032C86.7957 23.7549 86.9132 23.5894 86.9132 23.4238V22.9751H86.9372Z" fill="white"/>
<path d="M88.9311 22.3127C88.9311 22.1471 88.8106 22.0748 88.645 22.123L88.4312 22.1953C88.2655 22.2405 88.1482 22.406 88.1482 22.5747V23.0233C88.1482 23.189 88.2657 23.2582 88.4072 23.213L88.621 23.1408C88.7867 23.0926 88.9071 22.927 88.9071 22.7614V22.3127H88.9311Z" fill="white"/>
<path d="M90.9217 21.6504C90.9217 21.4847 90.8042 21.4125 90.6387 21.4607L90.4249 21.5329C90.2592 21.5781 90.1388 21.7436 90.1388 21.9093V22.361C90.1388 22.5266 90.2593 22.5959 90.4008 22.5507L90.6146 22.4784C90.7803 22.4302 90.9007 22.2647 90.9007 22.099V21.6504H90.9217Z" fill="white"/>
<path d="M92.9156 20.988C92.9156 20.8224 92.7981 20.7501 92.6325 20.7983L92.4187 20.8706C92.253 20.9158 92.1327 21.0813 92.1327 21.247V21.6986C92.1327 21.8643 92.2532 21.9335 92.3947 21.8883L92.6085 21.8161C92.774 21.7678 92.8915 21.6023 92.8915 21.4367V20.988H92.9156Z" fill="white"/>
<path d="M94.9092 20.3256C94.9092 20.16 94.7887 20.0877 94.6232 20.1359L94.4094 20.2082C94.2437 20.2534 94.1263 20.4189 94.1263 20.5846V21.0362C94.1263 21.2019 94.2438 21.2711 94.3853 21.2259L94.5991 21.1537C94.7648 21.1055 94.8852 20.9399 94.8852 20.7743V20.3256H94.9092Z" fill="white"/>
<path d="M96.8999 19.6631C96.8999 19.4975 96.7824 19.4252 96.6169 19.4734L96.4031 19.5457C96.2374 19.5909 96.117 19.7564 96.117 19.9221V20.3737C96.117 20.5394 96.2375 20.6086 96.379 20.5604L96.5928 20.4912C96.7586 20.443 96.8789 20.2774 96.8789 20.1118V19.6631H96.8999Z" fill="white"/>
<path d="M74.2943 38.0234L77.33 37.3611L84.3744 31.0683L76.1434 33.0073C75.8362 33.1036 75.5261 33.173 75.2429 33.2693L74.2943 38.0475V38.0234Z" fill="#796FDD"/>
<path d="M132.593 15.4416H137.907V45.6816H132.593V15.4416ZM146.002 15.4416H150.927L167.127 36.3504V15.4416H172.354V45.6816H167.904L151.229 24.168V45.6816H146.002V15.4416ZM191.407 40.8432C192.991 40.8432 194.431 40.5984 195.727 40.1088C197.023 39.5904 198.117 38.8848 199.01 37.992C199.931 37.0704 200.637 35.9904 201.127 34.752C201.645 33.4848 201.904 32.1168 201.904 30.648V30.5616C201.904 29.0928 201.645 27.7248 201.127 26.4576C200.637 25.1904 199.931 24.1104 199.01 23.2176C198.117 22.296 197.023 21.576 195.727 21.0576C194.431 20.5392 192.991 20.28 191.407 20.28H185.445V40.8432H191.407ZM180.131 15.4416H191.407C193.768 15.4416 195.928 15.8304 197.887 16.608C199.874 17.3568 201.573 18.408 202.984 19.7616C204.424 21.1152 205.533 22.7136 206.311 24.5568C207.088 26.3712 207.477 28.344 207.477 30.4752V30.5616C207.477 32.6928 207.088 34.68 206.311 36.5232C205.533 38.3664 204.424 39.9648 202.984 41.3184C201.573 42.672 199.874 43.7376 197.887 44.5152C195.928 45.2928 193.768 45.6816 191.407 45.6816H180.131V15.4416ZM213.924 15.4416H219.237V40.8432H235.135V45.6816H213.924V15.4416ZM255.186 41.3184C256.683 41.3184 258.051 41.0448 259.29 40.4976C260.557 39.9216 261.637 39.1584 262.53 38.208C263.423 37.2288 264.114 36.0912 264.603 34.7952C265.122 33.4992 265.381 32.1168 265.381 30.648V30.5616C265.381 29.0928 265.122 27.7104 264.603 26.4144C264.114 25.0896 263.408 23.952 262.487 23.0016C261.594 22.0224 260.514 21.2448 259.247 20.6688C257.979 20.0928 256.597 19.8048 255.099 19.8048C253.602 19.8048 252.219 20.0928 250.952 20.6688C249.714 21.216 248.648 21.9792 247.755 22.9584C246.863 23.9088 246.157 25.032 245.639 26.328C245.149 27.624 244.904 29.0064 244.904 30.4752V30.5616C244.904 32.0304 245.149 33.4272 245.639 34.752C246.157 36.048 246.863 37.1856 247.755 38.1648C248.677 39.1152 249.771 39.8784 251.039 40.4544C252.306 41.0304 253.688 41.3184 255.186 41.3184ZM255.099 46.2C252.767 46.2 250.635 45.7968 248.706 44.9904C246.776 44.1552 245.12 43.032 243.738 41.6208C242.355 40.2096 241.275 38.568 240.498 36.696C239.72 34.7952 239.331 32.7792 239.331 30.648V30.5616C239.331 28.4304 239.72 26.4288 240.498 24.5568C241.275 22.656 242.37 21 243.781 19.5888C245.192 18.1488 246.863 17.0112 248.792 16.176C250.722 15.3408 252.853 14.9232 255.186 14.9232C257.519 14.9232 259.65 15.3408 261.579 16.176C263.509 16.9824 265.165 18.0912 266.547 19.5024C267.93 20.9136 269.01 22.5696 269.787 24.4704C270.565 26.3424 270.954 28.344 270.954 30.4752V30.5616C270.954 32.6928 270.565 34.7088 269.787 36.6096C269.01 38.4816 267.915 40.1376 266.504 41.5776C265.093 42.9888 263.423 44.112 261.493 44.9472C259.563 45.7824 257.432 46.2 255.099 46.2ZM291.716 46.2C289.354 46.2 287.209 45.8112 285.279 45.0336C283.35 44.2272 281.694 43.1328 280.311 41.7504C278.958 40.3392 277.906 38.6976 277.158 36.8256C276.409 34.9248 276.034 32.8656 276.034 30.648V30.5616C276.034 28.4592 276.409 26.4576 277.158 24.5568C277.935 22.656 279.015 21 280.398 19.5888C281.78 18.1488 283.422 17.0112 285.322 16.176C287.252 15.3408 289.354 14.9232 291.63 14.9232C292.954 14.9232 294.15 15.024 295.215 15.2256C296.31 15.3984 297.318 15.6576 298.239 16.0032C299.161 16.3488 300.025 16.7808 300.831 17.2992C301.666 17.7888 302.473 18.3648 303.25 19.0272L299.881 23.0448C299.305 22.5552 298.714 22.1088 298.11 21.7056C297.505 21.3024 296.871 20.9712 296.209 20.712C295.546 20.424 294.812 20.208 294.006 20.064C293.228 19.8912 292.364 19.8048 291.414 19.8048C290.031 19.8048 288.735 20.0928 287.526 20.6688C286.345 21.2448 285.308 22.0224 284.415 23.0016C283.551 23.952 282.86 25.0752 282.342 26.3712C281.852 27.6672 281.607 29.0352 281.607 30.4752V30.5616C281.607 32.1168 281.852 33.5568 282.342 34.8816C282.831 36.2064 283.522 37.344 284.415 38.2944C285.337 39.2448 286.417 39.9936 287.655 40.5408C288.922 41.088 290.334 41.3616 291.889 41.3616C293.329 41.3616 294.668 41.16 295.906 40.7568C297.174 40.3248 298.268 39.7632 299.19 39.072V33.4128H291.457V28.7904H304.33V41.4912C303.582 42.1248 302.746 42.7296 301.825 43.3056C300.932 43.8816 299.953 44.3856 298.887 44.8176C297.85 45.2496 296.727 45.5808 295.518 45.8112C294.308 46.0704 293.041 46.2 291.716 46.2Z" fill="white"/>
<path d="M162.327 65.3184V57.2544H163.335L167.541 63.5544V57.2544H168.549V65.3184H167.541L163.335 59.0128V65.3184H162.327ZM179.971 65.3184V57.2544H185.067V58.2008H180.968V60.7264H184.395V61.6728H180.968V64.372H185.067V65.3184H179.971ZM198.347 65.3184V58.2008H195.597V57.2544H202.093V58.2008H199.344V65.3184H198.347ZM214.56 65.3184L212.225 57.2544H213.266L215.058 63.6328L216.845 57.26L217.892 57.2544L219.684 63.6328L221.47 57.2544H222.518L220.182 65.3184H219.186L217.371 58.996L215.557 65.3184H214.56ZM236.424 65.4864C235.622 65.4864 234.94 65.3091 234.38 64.9544C233.82 64.5998 233.393 64.107 233.098 63.476C232.807 62.8451 232.661 62.1152 232.661 61.2864C232.661 60.4576 232.807 59.7278 233.098 59.0968C233.393 58.4659 233.82 57.9731 234.38 57.6184C234.94 57.2638 235.622 57.0864 236.424 57.0864C237.231 57.0864 237.914 57.2638 238.474 57.6184C239.034 57.9731 239.46 58.4659 239.751 59.0968C240.042 59.7278 240.188 60.4576 240.188 61.2864C240.188 62.1152 240.042 62.8451 239.751 63.476C239.46 64.107 239.034 64.5998 238.474 64.9544C237.914 65.3091 237.231 65.4864 236.424 65.4864ZM236.424 64.5344C237.026 64.5382 237.526 64.4038 237.925 64.1312C238.328 63.855 238.629 63.4723 238.827 62.9832C239.028 62.4942 239.129 61.9286 239.129 61.2864C239.129 60.6406 239.028 60.075 238.827 59.5896C238.629 59.1043 238.328 58.7254 237.925 58.4528C237.526 58.1803 237.026 58.0422 236.424 58.0384C235.823 58.0347 235.323 58.1691 234.924 58.4416C234.528 58.7142 234.229 59.095 234.028 59.584C233.826 60.0731 233.723 60.6406 233.72 61.2864C233.716 61.9286 233.815 62.4923 234.016 62.9776C234.218 63.463 234.519 63.8438 234.918 64.12C235.321 64.3926 235.823 64.5307 236.424 64.5344ZM251.168 65.3184V57.2544H254.355C254.433 57.2544 254.526 57.2582 254.635 57.2656C254.743 57.2694 254.848 57.2806 254.948 57.2992C255.385 57.3664 255.751 57.5158 256.046 57.7472C256.345 57.9787 256.569 58.2718 256.718 58.6264C256.867 58.9774 256.942 59.3675 256.942 59.7968C256.942 60.4203 256.78 60.9616 256.455 61.4208C256.13 61.8763 255.654 62.1619 255.027 62.2776L254.646 62.3392H252.165V65.3184H251.168ZM255.968 65.3184L254.377 62.0368L255.363 61.7344L257.11 65.3184H255.968ZM252.165 61.3928H254.321C254.392 61.3928 254.472 61.3891 254.562 61.3816C254.655 61.3742 254.743 61.3611 254.825 61.3424C255.083 61.2827 255.292 61.1744 255.452 61.0176C255.617 60.8571 255.736 60.6704 255.811 60.4576C255.885 60.2411 255.923 60.0208 255.923 59.7968C255.923 59.5728 255.885 59.3544 255.811 59.1416C255.736 58.9251 255.617 58.7366 255.452 58.576C255.292 58.4155 255.083 58.3072 254.825 58.2512C254.743 58.2288 254.655 58.2158 254.562 58.212C254.472 58.2046 254.392 58.2008 254.321 58.2008H252.165V61.3928ZM268.199 65.3184V57.2544H269.196V61.04L272.724 57.2544H273.979L270.316 61.1688L274.264 65.3184H272.976L269.196 61.376V65.3184H268.199Z" fill="#CDC9F2"/>
</svg>
