<svg width="200" height="52" viewBox="0 0 200 52" fill="none" xmlns="http://www.w3.org/2000/svg">
<path d="M0.0731672 36.5064C-0.0876617 34.1829 0.0166481 31.8674 0.386096 29.5637C0.75409 27.2588 1.38147 25.0149 2.26534 22.8306C3.16943 20.6144 4.30833 18.5043 5.68334 16.5003C7.05835 14.4963 8.6406 12.6406 10.43 10.9321C12.231 9.20771 14.2001 7.66362 16.3415 6.30372C18.483 4.94382 20.752 3.79332 23.1485 2.85362C24.3482 2.38444 25.5725 1.97089 26.8186 1.61569C28.0647 1.25916 29.3267 0.960922 30.6061 0.721041C31.8841 0.48116 33.1735 0.302231 34.4718 0.181591C35.7714 0.060952 37.074 0 38.3795 0C39.6849 0 40.986 0.060952 42.2858 0.181591C43.584 0.302231 44.8735 0.48116 46.1529 0.721041C47.4309 0.960922 48.6943 1.25916 49.9404 1.61569C51.1864 1.97089 52.4093 2.38444 53.609 2.85362C56.007 3.79338 58.276 4.94382 60.4189 6.30372C62.5619 7.66495 64.5339 9.20771 66.3348 10.9321C68.1199 12.6419 69.6978 14.4989 71.0699 16.5016C72.4405 18.5057 73.5765 20.6157 74.4763 22.8306C75.3615 25.0149 75.9875 27.2588 76.3555 29.5637C76.7235 31.8687 76.825 34.1829 76.6598 36.5064C76.4946 34.2359 76.1063 31.9973 75.4934 29.7917C74.8805 27.5862 74.0546 25.4496 73.0158 23.3819C71.9871 21.3487 70.7613 19.4229 69.3356 17.6017C67.9099 15.7819 66.3102 14.0999 64.5368 12.5557C64.1006 12.1753 63.6558 11.8042 63.2009 11.4437C62.7459 11.0832 62.2822 10.732 61.8085 10.3913C61.3347 10.0506 60.8536 9.72061 60.3625 9.39988C59.8727 9.08048 59.3743 8.7716 58.8672 8.47343C58.3615 8.17652 57.8472 7.88893 57.3256 7.61325C56.8039 7.33757 56.2751 7.0738 55.7405 6.82061C55.2044 6.56875 54.6639 6.32754 54.1163 6.09824C53.5686 5.87027 53.0151 5.65288 52.4558 5.44747C51.8965 5.24332 51.3329 5.04982 50.7635 4.86956C50.1941 4.6893 49.6203 4.52228 49.0422 4.36724C48.4655 4.21086 47.8831 4.069 47.2977 3.93911C46.7123 3.80922 46.1241 3.69124 45.5329 3.58784C44.9417 3.4831 44.3477 3.39168 43.7522 3.31349C43.1552 3.2353 42.5583 3.16903 41.9584 3.11733C41.3586 3.06429 40.7587 3.02457 40.1575 2.99935C39.5547 2.97286 38.9534 2.95955 38.3507 2.95955C37.7494 2.95955 37.1466 2.9728 36.5453 2.99935C35.9441 3.0245 35.3427 3.06429 34.7429 3.11733C34.1445 3.16903 33.5461 3.2353 32.9506 3.31349C32.3536 3.39168 31.7596 3.48317 31.1684 3.58784C30.5773 3.69124 29.989 3.80915 29.4037 3.93911C28.8183 4.069 28.2373 4.2108 27.6592 4.36724C27.0811 4.52234 26.5073 4.6893 25.9393 4.86956C25.3699 5.04982 24.8063 5.24332 24.247 5.44747C23.6877 5.65288 23.1343 5.87027 22.5866 6.09824C22.0389 6.32754 21.497 6.56875 20.9624 6.82061C20.4263 7.0738 19.8988 7.3375 19.3773 7.61325C18.8557 7.889 18.3413 8.17659 17.8342 8.47343C17.3285 8.77167 16.8301 9.08048 16.3389 9.39988C15.8492 9.72061 15.3667 10.0507 14.8929 10.3913C14.4205 10.7319 13.9554 11.0832 13.5005 11.4437C13.0456 11.8042 12.6007 12.1753 12.1647 12.5557C10.397 14.1012 8.80317 15.7845 7.38175 17.6043C5.95895 19.4255 4.73604 21.3513 3.71018 23.3819C2.67276 25.4496 1.84832 27.5861 1.23687 29.7917C0.625193 31.9973 0.236906 34.2359 0.0731672 36.5064Z" fill="#584BD4"/>
<path d="M75.9384 42.2662C75.9384 42.2662 75.8464 42.0646 75.6917 41.865V39.728C75.6917 39.728 75.6153 39.4501 75.4294 39.3287C75.4294 39.3287 75.0437 36.5126 74.4114 34.391C74.4114 34.391 74.0414 32.4673 70.9738 31.8683H59.978C59.978 31.8683 59.8253 31.8683 59.6707 31.929C59.7314 31.7763 59.886 31.6687 60.0563 31.6687L68.4897 31.469C68.4133 30.9152 67.9963 30.7293 67.4423 30.7293H58.6997C58.3591 30.7293 58.0204 30.7607 57.6974 30.8526L42.2618 36.0368L56.7715 33.3146L56.8028 34.9449L42.6768 38.4813L56.8322 36.7278L56.8636 38.0978L42.3538 40.865L56.8948 40.2348L56.9262 41.6497L42.6161 43.3739L56.9712 44.0648L57.0025 45.6187L42.7082 46.0492L58.0968 48.0787C58.0968 48.0787 57.9441 45.1255 59.1148 44.466C59.1148 44.1118 59.1148 43.603 59.1148 43.004C59.1618 43.0197 59.2225 43.0354 59.2851 43.0354V43.6656C59.2851 43.6656 59.2851 43.7575 59.3771 43.7889V44.7419C59.3771 44.7419 58.2202 45.2957 58.4375 48.4799C58.4375 48.4799 58.8995 48.5876 59.0992 48.6168C59.0698 48.1413 59.0698 47.4798 59.0698 47.4798C59.1618 45.9415 59.5318 45.5716 59.5318 45.5716C60.0721 44.7575 60.9354 45.0491 60.9354 45.0491C60.4264 45.0805 59.9332 45.4954 59.7785 45.7263C59.2089 46.5717 59.2539 47.8791 59.3321 48.6168C59.3458 48.7871 59.4241 49.0493 59.5161 49.3096L50.5424 48.3878L60.6886 51.0161L61.9533 50.9867H61.9827C61.9827 50.9867 62.8617 50.9711 63.1396 49.8165L69.6623 49.7245C69.6623 49.7245 70.1869 50.5563 70.88 50.5406H72.1759C72.1759 50.5406 72.7318 50.4936 73.1781 49.7088L74.7051 49.5875C74.7051 49.5875 75.5057 49.5091 75.5683 49.018V44.4032C75.584 44.4032 75.907 44.4502 75.907 43.9413C75.907 43.8963 75.907 42.2818 75.907 42.2818L75.9384 42.2662ZM73.9495 34.6826C73.9495 34.6826 74.3959 36.4204 74.6894 39.3287C74.6894 39.3287 67.6264 39.5889 65.2068 39.4362C65.2068 39.4362 65.0208 36.1602 64.8661 34.7589L73.9494 34.6983V34.6826H73.9495ZM74.3194 41.957L67.8437 42.0959L66.9021 41.4501L67.92 41.6967L74.3352 41.6047L74.6425 41.4501L74.3194 41.957ZM74.4897 42.7261L74.1647 43.2349L68.1824 43.4032L67.3641 42.7887L68.3057 43.0489L74.1805 42.8806L74.4897 42.7261ZM66.1308 44.3876L65.8841 44.2487C65.8078 44.2037 65.7608 44.1273 65.7608 44.049L65.7158 42.8337C65.7158 42.7573 65.7921 42.6654 65.8528 42.7123L66.0701 42.865C66.0701 42.8964 66.1307 44.4032 66.1307 44.4032V44.3876H66.1308ZM63.5096 33.068C63.5096 33.068 63.7406 33.0366 63.7876 33.2363V33.9134C63.7876 33.9134 63.6329 34.1757 63.3099 34.1287L61.3503 34.0367L63.5252 33.8371V33.3439L60.6574 33.2833L63.5096 33.0836V33.068ZM61.1664 49.3409C61.0587 49.4936 60.9197 49.5876 60.7807 49.5876C60.3481 49.6012 59.9781 48.9104 59.9331 48.0336C59.8861 47.1568 60.1954 46.419 60.626 46.4033C60.8277 46.4033 61.0117 46.5403 61.1664 46.8025C61.135 46.8025 61.1038 46.8025 61.0744 46.8025C60.7337 46.8182 60.4871 47.4033 60.5184 48.1099C60.5498 48.787 60.8415 49.3408 61.1664 49.3565V49.3409ZM62.57 45.4953C61.8593 43.818 59.9331 44.1723 59.9331 44.1723V43.6655C62.5073 43.4502 62.5993 45.5716 62.57 45.4953ZM59.6394 42.4971L63.0946 42.2662V41.1741L59.2224 40.2053L63.7562 40.9431V42.7123L59.6237 42.4971H59.6394ZM60.6574 38.2972C60.0408 38.2052 60.072 37.3892 60.072 37.3892V34.8665L64.0186 34.7901L64.1106 39.2816L60.6574 38.2972ZM64.5588 47.1568C64.4669 47.1568 64.3885 47.0805 64.3885 46.9865V46.0804C64.3885 45.9884 64.4669 45.9101 64.5588 45.9101H66.6554C67.7497 45.9571 67.7047 47.1411 67.7047 47.1411H64.5588V47.1568ZM74.0571 44.3876L68.5054 44.6185L67.6421 44.0197L68.5837 44.2799L74.1042 44.096L74.4115 43.9413L74.0729 44.3876H74.0571ZM75.3824 46.7263C75.3824 46.8026 75.3218 46.8652 75.2454 46.8652H74.4585C74.4585 45.7731 75.1515 45.6792 75.1515 45.6792L75.4137 45.6185V46.7106L75.3824 46.7263ZM75.5527 43.9571C75.5527 43.9571 75.5371 44.1567 75.1357 44.188V42.8043C75.1357 42.7417 75.1671 42.6654 75.2297 42.634L75.4137 42.5107C75.4763 42.4813 75.5526 42.5107 75.5526 42.589V43.9571H75.5527ZM43.5264 26.5921H25.6536C25.3619 26.5921 25.1309 26.823 25.1309 27.1146V31.0228C22.8171 31.4533 20.8595 31.8996 19.3639 32.2518V31.9289H15.245C14.9847 31.9289 14.7674 32.1441 14.7674 32.4064V33.1599C14.4443 33.5298 14.1351 33.9897 14.1351 33.9897L12.9174 36.483C12.3928 37.8979 10.8815 38.8197 10.8815 38.8197L10.4038 39.0056V37.1581H7.55161C7.2893 37.1581 7.07398 37.3734 7.07398 37.6356V40.2659L2.70856 41.9274V39.2052C2.70856 38.9273 2.84752 38.6807 3.08054 38.528L6.13247 36.5749C6.25581 36.4985 6.39477 36.4516 6.54946 36.4516H10.404V33.9602C10.404 33.6824 10.543 33.4377 10.774 33.2831L13.8279 31.3299C13.9513 31.2536 14.0902 31.2066 14.243 31.2066H19.3641V29.3298C19.3641 29.0382 19.5168 28.7604 19.7634 28.6077L24.0975 25.9461C24.2365 25.8697 24.3892 25.8228 24.5439 25.8228H43.9887C44.4664 25.8228 44.852 26.2083 44.852 26.6838V29.7604C44.5741 29.684 44.298 29.6234 44.0357 29.5764V27.1007C44.0357 26.8071 43.8028 26.5762 43.5111 26.5762L43.5264 26.5921Z" fill="#584BD4"/>
<path d="M25.8707 51.478C25.8707 51.478 23.9425 51.3861 23.6195 51.6933C23.6195 51.6933 21.6755 52.3548 19.9803 51.5406C19.9803 51.5406 21.3056 51.7559 22.9873 51.3547C22.9873 51.3547 24.0346 50.9868 25.8865 51.478H25.8707Z" fill="#1F1863"/>
<path d="M53.379 35.5436C49.7085 42.2034 46.7329 41.589 43.8651 47.5247C43.8651 47.5247 42.7551 46.1254 41.7685 45.3719C41.7685 45.3719 40.8739 44.4188 40.596 43.3581C40.596 43.3581 40.412 44.7574 41.2753 45.7105C42.5399 47.1412 43.3406 48.4797 43.4795 49.3721C43.5109 49.5405 43.4952 49.6951 43.4795 49.8321H42.7396C42.8002 49.8321 42.8629 49.8321 42.9255 49.8477C46.1008 50.2782 49.0763 50.3409 49.0763 50.3409C46.6724 51.0317 43.9728 50.8948 41.428 50.5248C39.1317 50.2019 36.9568 49.7088 35.2459 49.5091C33.3646 49.2938 31.4677 49.787 30.1112 50.2782C28.8935 50.7401 27.1963 51.2176 27.1963 51.2176C27.49 50.8634 28.3376 50.4485 28.6763 50.1863C29.0463 49.971 29.432 49.7871 29.8176 49.6324L15.7248 49.4328C18.252 50.1393 20.8126 50.7088 20.8126 50.7088C17.281 50.4328 11.8546 49.3721 11.8546 49.3721H11.839C7.01156 48.325 5.40825 48.0784 3.74233 48.6029C2.63238 48.9395 2.1234 49.3408 2.03141 49.4171C2.32506 48.9708 2.70874 48.6029 3.15699 48.3094C2.47769 47.6028 0.766764 45.5871 0.798115 43.2797L10.9287 39.5437C10.9287 39.5437 12.5946 39.2207 13.1173 37.8058L14.3819 35.3438C14.3819 35.3438 14.7226 34.1598 16.4648 33.7449C18.7004 33.2224 27.9521 30.6997 40.2419 30.0382C41.4282 29.9756 42.6164 30.0382 43.7734 30.2378C46.0403 30.637 49.4622 32.0227 52.794 33.5296C53.5497 33.8819 53.812 34.8056 53.4107 35.5435L53.379 35.5436Z" fill="#1F1863"/>
<path d="M20.7966 34.0524L18.2518 34.6376L18.1755 35.6356L20.6577 35.0524L20.781 34.0524H20.7966Z" fill="#F8F8F8"/>
<path d="M24.3282 33.2833L21.7834 33.8685L21.66 34.8822L24.2048 34.299L24.3439 33.2989L24.3282 33.2833Z" fill="#F8F8F8"/>
<path d="M70.048 12.5502C70.187 14.8733 63.4019 17.073 63.4019 17.073C63.4019 17.073 55.7379 19.6563 49.4932 21.4549L48.9079 21.5938V21.6252C46.502 22.3023 44.3428 22.8406 43.0018 23.0401C38.098 23.7623 34.1808 23.1165 33.7952 23.0851C33.4095 23.0557 33.3488 22.9168 33.3488 22.9168L33.2254 22.5313C33.1785 22.3473 33.4721 22.316 33.4721 22.316L27.4427 21.1163L28.4921 20.8091L34.5214 21.3023L32.9789 16.9185L33.9048 16.6719L38.4366 20.1026L44.2507 18.2728L43.078 17.4723L31.6221 13.0122L34.5977 11.7499L52.6389 15.0573C52.6389 15.0573 64.8817 11.3193 65.3143 11.29C66.3166 11.1197 67.1799 11.5659 67.1799 11.5659C66.994 11.5346 66.209 11.6423 66.209 11.6423C65.6217 11.7656 65.8077 12.1511 65.8077 12.1511C67.873 11.5817 69.3236 11.8889 69.7385 12.0434C70.1711 12.2117 70.0478 12.5347 70.0478 12.5347V12.5502H70.048Z" fill="#1F1863"/>
<path d="M56.5092 14.9339C56.5092 14.8262 56.4329 14.7812 56.3252 14.8106L56.1863 14.8575C56.0786 14.8889 56.0003 14.9964 56.0003 15.1041V15.3957C56.0003 15.5034 56.0787 15.5484 56.1707 15.519L56.3096 15.4721C56.4172 15.4407 56.4936 15.3332 56.4936 15.2255V14.9339H56.5092Z" fill="white"/>
<path d="M57.8052 14.5033C57.8052 14.3957 57.7269 14.3487 57.6193 14.38L57.4803 14.427C57.3726 14.4564 57.2963 14.564 57.2963 14.6736V14.9652C57.2963 15.0729 57.3727 15.1179 57.4647 15.0885L57.6037 15.0416C57.7114 15.0102 57.7896 14.9026 57.7896 14.795V14.5033H57.8052Z" fill="white"/>
<path d="M59.0991 14.0728C59.0991 13.9651 59.0228 13.9182 58.9152 13.9495L58.7762 13.9965C58.6685 14.0258 58.5902 14.1334 58.5902 14.2411V14.5347C58.5902 14.6424 58.6686 14.6874 58.7606 14.658L58.8995 14.611C59.0072 14.5797 59.0855 14.4721 59.0855 14.3644V14.0728H59.0991Z" fill="white"/>
<path d="M60.3951 13.6423C60.3951 13.5346 60.3188 13.4876 60.2112 13.519L60.0722 13.5659C59.9645 13.5953 59.8862 13.7029 59.8862 13.8106V14.1041C59.8862 14.2118 59.9646 14.2568 60.0566 14.2274L60.1955 14.1805C60.3031 14.1491 60.3795 14.0415 60.3795 13.9339V13.6423H60.3951Z" fill="white"/>
<path d="M61.691 13.2117C61.691 13.104 61.6127 13.0571 61.5051 13.0884L61.3661 13.1354C61.2584 13.1648 61.1821 13.2723 61.1821 13.38V13.6736C61.1821 13.7813 61.2585 13.8263 61.3505 13.7969L61.4895 13.7499C61.5972 13.7186 61.6754 13.611 61.6754 13.5033V13.2117H61.691Z" fill="white"/>
<path d="M62.985 12.7811C62.985 12.6734 62.9086 12.6264 62.801 12.6577L62.662 12.7047C62.5543 12.7341 62.4761 12.8417 62.4761 12.9494V13.2429C62.4761 13.3506 62.5544 13.3956 62.6464 13.3643L62.7854 13.3193C62.8931 13.2879 62.9713 13.1803 62.9713 13.0727V12.7811H62.985Z" fill="white"/>
<path d="M48.2913 24.7153L50.2645 24.2848L54.8434 20.1945L49.4932 21.4548C49.2935 21.5174 49.092 21.5625 48.9079 21.6251L48.2913 24.7309V24.7153Z" fill="#1F1863"/>
<path d="M85.8606 9.31201H89.3144V28.968H85.8606V9.31201ZM94.5761 9.31201H97.7772L108.307 22.9027V9.31201H111.705V28.968H108.813L97.9738 14.9842V28.968H94.5761V9.31201ZM124.089 25.8231C125.119 25.8231 126.055 25.6639 126.897 25.3457C127.74 25.0087 128.451 24.5501 129.031 23.9698C129.63 23.3707 130.089 22.6687 130.407 21.8638C130.744 21.0401 130.913 20.1509 130.913 19.1962V19.14C130.913 18.1853 130.744 17.2961 130.407 16.4724C130.089 15.6487 129.63 14.9467 129.031 14.3664C128.451 13.7674 127.74 13.2994 126.897 12.9624C126.055 12.6255 125.119 12.457 124.089 12.457H120.214V25.8231H124.089ZM116.76 9.31201H124.089C125.624 9.31201 127.028 9.56474 128.301 10.0702C129.593 10.5569 130.697 11.2402 131.615 12.12C132.551 12.9999 133.271 14.0388 133.777 15.2369C134.282 16.4163 134.535 17.6986 134.535 19.0839V19.14C134.535 20.5253 134.282 21.817 133.777 23.0151C133.271 24.2131 132.551 25.2521 131.615 26.1319C130.697 27.0118 129.593 27.7044 128.301 28.2099C127.028 28.7153 125.624 28.968 124.089 28.968H116.76V9.31201ZM138.725 9.31201H142.179V25.8231H152.513V28.968H138.725V9.31201ZM165.546 26.1319C166.519 26.1319 167.408 25.9541 168.213 25.5984C169.037 25.224 169.739 24.7279 170.319 24.1102C170.9 23.4737 171.349 22.7343 171.667 21.8919C172.004 21.0495 172.173 20.1509 172.173 19.1962V19.14C172.173 18.1853 172.004 17.2867 171.667 16.4443C171.349 15.5832 170.89 14.8438 170.291 14.226C169.711 13.5895 169.009 13.0841 168.185 12.7097C167.362 12.3353 166.463 12.1481 165.49 12.1481C164.516 12.1481 163.618 12.3353 162.794 12.7097C161.989 13.0654 161.296 13.5615 160.716 14.1979C160.136 14.8157 159.677 15.5458 159.34 16.3882C159.022 17.2306 158.863 18.1291 158.863 19.0839V19.14C158.863 20.0947 159.022 21.0027 159.34 21.8638C159.677 22.7062 160.136 23.4456 160.716 24.0821C161.315 24.6999 162.026 25.1959 162.85 25.5703C163.674 25.9447 164.572 26.1319 165.546 26.1319ZM165.49 29.305C163.973 29.305 162.588 29.0429 161.334 28.5187C160.079 27.9759 159.003 27.2458 158.104 26.3285C157.206 25.4112 156.504 24.3442 155.998 23.1274C155.493 21.8919 155.24 20.5815 155.24 19.1962V19.14C155.24 17.7547 155.493 16.4537 155.998 15.2369C156.504 14.0014 157.215 12.925 158.133 12.0077C159.05 11.0717 160.136 10.3323 161.39 9.78938C162.644 9.2465 164.029 8.97506 165.546 8.97506C167.062 8.97506 168.447 9.2465 169.702 9.78938C170.956 10.3135 172.032 11.0343 172.931 11.9515C173.829 12.8688 174.531 13.9452 175.037 15.1807C175.542 16.3975 175.795 17.6986 175.795 19.0839V19.14C175.795 20.5253 175.542 21.8357 175.037 23.0712C174.531 24.288 173.82 25.3644 172.903 26.3004C171.985 27.2177 170.9 27.9478 169.645 28.4907C168.391 29.0335 167.006 29.305 165.49 29.305ZM189.29 29.305C187.755 29.305 186.361 29.0523 185.106 28.5468C183.852 28.0227 182.776 27.3113 181.877 26.4127C180.997 25.4955 180.314 24.4284 179.827 23.2116C179.341 21.9761 179.097 20.6376 179.097 19.1962V19.14C179.097 17.7735 179.341 16.4724 179.827 15.2369C180.333 14.0014 181.035 12.925 181.933 12.0077C182.832 11.0717 183.899 10.3323 185.135 9.78938C186.389 9.2465 187.755 8.97506 189.234 8.97506C190.095 8.97506 190.872 9.04058 191.565 9.17162C192.276 9.28393 192.931 9.45241 193.53 9.67706C194.13 9.9017 194.691 10.1825 195.215 10.5195C195.758 10.8377 196.282 11.2121 196.788 11.6427L194.598 14.2541C194.223 13.9359 193.839 13.6457 193.446 13.3836C193.053 13.1215 192.641 12.9063 192.211 12.7378C191.78 12.5506 191.303 12.4102 190.779 12.3166C190.273 12.2043 189.712 12.1481 189.094 12.1481C188.195 12.1481 187.353 12.3353 186.567 12.7097C185.799 13.0841 185.125 13.5895 184.545 14.226C183.983 14.8438 183.534 15.5739 183.197 16.4163C182.879 17.2587 182.72 18.1479 182.72 19.0839V19.14C182.72 20.1509 182.879 21.0869 183.197 21.948C183.515 22.8091 183.965 23.5486 184.545 24.1663C185.144 24.7841 185.846 25.2708 186.651 25.6265C187.475 25.9822 188.392 26.16 189.403 26.16C190.339 26.16 191.209 26.029 192.014 25.7669C192.838 25.4861 193.549 25.1211 194.148 24.6718V20.9933H189.122V17.9887H197.49V26.2443C197.003 26.6561 196.46 27.0492 195.861 27.4236C195.281 27.798 194.644 28.1256 193.952 28.4064C193.278 28.6872 192.548 28.9025 191.761 29.0523C190.975 29.2207 190.152 29.305 189.29 29.305Z" fill="#1F1863"/>
<path d="M105.513 42.032V36.7904H106.168L108.902 40.8854V36.7904H109.557V42.032H108.902L106.168 37.9333V42.032H105.513ZM116.981 42.032V36.7904H120.293V37.4055H117.629V39.0472H119.857V39.6623H117.629V41.4168H120.293V42.032H116.981ZM128.925 42.032V37.4055H127.138V36.7904H131.361V37.4055H129.573V42.032H128.925ZM139.464 42.032L137.946 36.7904H138.623L139.788 40.9363L140.949 36.794L141.63 36.7904L142.795 40.9363L143.956 36.7904H144.636L143.119 42.032H142.471L141.291 37.9224L140.112 42.032H139.464ZM153.676 42.1412C153.154 42.1412 152.711 42.0259 152.347 41.7954C151.983 41.5648 151.705 41.2445 151.514 40.8344C151.324 40.4243 151.23 39.9499 151.23 39.4112C151.23 38.8725 151.324 38.398 151.514 37.9879C151.705 37.5778 151.983 37.2575 152.347 37.027C152.711 36.7964 153.154 36.6812 153.676 36.6812C154.2 36.6812 154.644 36.7964 155.008 37.027C155.372 37.2575 155.649 37.5778 155.838 37.9879C156.027 38.398 156.122 38.8725 156.122 39.4112C156.122 39.9499 156.027 40.4243 155.838 40.8344C155.649 41.2445 155.372 41.5648 155.008 41.7954C154.644 42.0259 154.2 42.1412 153.676 42.1412ZM153.676 41.5224C154.067 41.5248 154.392 41.4374 154.651 41.2603C154.913 41.0807 155.109 40.832 155.237 40.5141C155.368 40.1962 155.434 39.8286 155.434 39.4112C155.434 38.9914 155.368 38.6237 155.237 38.3083C155.109 37.9928 154.913 37.7465 154.651 37.5693C154.392 37.3922 154.067 37.3024 153.676 37.3C153.285 37.2976 152.96 37.3849 152.7 37.5621C152.443 37.7392 152.249 37.9867 152.118 38.3046C151.987 38.6225 151.92 38.9914 151.918 39.4112C151.915 39.8286 151.98 40.195 152.111 40.5105C152.242 40.8259 152.437 41.0734 152.697 41.253C152.959 41.4302 153.285 41.52 153.676 41.5224ZM163.259 42.032V36.7904H165.331C165.382 36.7904 165.442 36.7928 165.513 36.7977C165.583 36.8001 165.651 36.8074 165.716 36.8195C166 36.8632 166.238 36.9602 166.43 37.1107C166.624 37.2612 166.77 37.4516 166.867 37.6822C166.964 37.9103 167.012 38.1639 167.012 38.4429C167.012 38.8482 166.907 39.2001 166.696 39.4985C166.484 39.7946 166.175 39.9802 165.767 40.0555L165.52 40.0955H163.907V42.032H163.259ZM166.379 42.032L165.345 39.8989L165.986 39.7024L167.121 42.032H166.379ZM163.907 39.4803H165.309C165.355 39.4803 165.407 39.4779 165.465 39.4731C165.526 39.4682 165.583 39.4597 165.636 39.4476C165.804 39.4088 165.94 39.3384 166.044 39.2365C166.151 39.1321 166.228 39.0108 166.277 38.8725C166.326 38.7317 166.35 38.5885 166.35 38.4429C166.35 38.2973 166.326 38.1554 166.277 38.0171C166.228 37.8763 166.151 37.7538 166.044 37.6494C165.94 37.5451 165.804 37.4747 165.636 37.4383C165.583 37.4237 165.526 37.4152 165.465 37.4128C165.407 37.408 165.355 37.4055 165.309 37.4055H163.907V39.4803ZM174.33 42.032V36.7904H174.977V39.251L177.271 36.7904H178.086L175.705 39.3347L178.272 42.032H177.434L174.977 39.4694V42.032H174.33Z" fill="#584BD4"/>
</svg>
