<svg width="60" height="60" viewBox="0 0 60 60" fill="none" xmlns="http://www.w3.org/2000/svg">
<rect width="60" height="60" rx="30" fill="#EEEDFB"/>
<path d="M45.0837 40.7083V45.0833H15.917V40.7083C15.917 39.9062 16.5732 39.25 17.3753 39.25H43.6253C44.4274 39.25 45.0837 39.9062 45.0837 40.7083Z" fill="#584BD4" stroke="#584BD4" stroke-width="1.5" stroke-miterlimit="10" stroke-linecap="round" stroke-linejoin="round"/>
<path opacity="0.6" d="M24.6663 29.0417H18.833V39.25H24.6663V29.0417Z" fill="#584BD4"/>
<path opacity="0.7" d="M30.5003 29.0417H24.667V39.25H30.5003V29.0417Z" fill="#584BD4"/>
<path opacity="0.7" d="M36.3333 29.0417H30.5V39.25H36.3333V29.0417Z" fill="#584BD4"/>
<path opacity="0.6" d="M42.1663 29.0417H36.333V39.25H42.1663V29.0417Z" fill="#584BD4"/>
<path d="M46.5413 46.1771H14.458C13.8601 46.1771 13.3643 45.6813 13.3643 45.0833C13.3643 44.4854 13.8601 43.9896 14.458 43.9896H46.5413C47.1393 43.9896 47.6351 44.4854 47.6351 45.0833C47.6351 45.6813 47.1393 46.1771 46.5413 46.1771Z" fill="#584BD4"/>
<path d="M44.1649 21.3854L31.0399 16.1354C30.7482 16.0188 30.2524 16.0188 29.9607 16.1354L16.8357 21.3854C16.3253 21.5896 15.917 22.1875 15.917 22.7416V27.5833C15.917 28.3854 16.5732 29.0417 17.3753 29.0417H43.6253C44.4274 29.0417 45.0837 28.3854 45.0837 27.5833V22.7416C45.0837 22.1875 44.6753 21.5896 44.1649 21.3854ZM30.5003 25.3958C29.2899 25.3958 28.3128 24.4187 28.3128 23.2083C28.3128 21.9979 29.2899 21.0208 30.5003 21.0208C31.7107 21.0208 32.6878 21.9979 32.6878 23.2083C32.6878 24.4187 31.7107 25.3958 30.5003 25.3958Z" fill="#584BD4"/>
</svg>
