<svg width="60" height="61" viewBox="0 0 60 61" fill="none" xmlns="http://www.w3.org/2000/svg">
<rect y="0.5" width="60" height="60" rx="30" fill="#EEEDFB"/>
<path d="M42.5 39.25V43H17.5V39.25C17.5 38.5625 18.0625 38 18.75 38H41.25C41.9375 38 42.5 38.5625 42.5 39.25Z" fill="#584BD4" stroke="#584BD4" stroke-width="1.5" stroke-miterlimit="10" stroke-linecap="round" stroke-linejoin="round"/>
<path opacity="0.6" d="M25 29.25H20V38H25V29.25Z" fill="#584BD4"/>
<path opacity="0.7" d="M30 29.25H25V38H30V29.25Z" fill="#584BD4"/>
<path opacity="0.7" d="M35 29.25H30V38H35V29.25Z" fill="#584BD4"/>
<path opacity="0.6" d="M40 29.25H35V38H40V29.25Z" fill="#584BD4"/>
<path d="M43.75 43.9375H16.25C15.7375 43.9375 15.3125 43.5125 15.3125 43C15.3125 42.4875 15.7375 42.0625 16.25 42.0625H43.75C44.2625 42.0625 44.6875 42.4875 44.6875 43C44.6875 43.5125 44.2625 43.9375 43.75 43.9375Z" fill="#584BD4"/>
<path d="M41.7125 22.6875L30.4625 18.1875C30.2125 18.0875 29.7875 18.0875 29.5375 18.1875L18.2875 22.6875C17.85 22.8625 17.5 23.375 17.5 23.85V28C17.5 28.6875 18.0625 29.25 18.75 29.25H41.25C41.9375 29.25 42.5 28.6875 42.5 28V23.85C42.5 23.375 42.15 22.8625 41.7125 22.6875ZM30 26.125C28.9625 26.125 28.125 25.2875 28.125 24.25C28.125 23.2125 28.9625 22.375 30 22.375C31.0375 22.375 31.875 23.2125 31.875 24.25C31.875 25.2875 31.0375 26.125 30 26.125Z" fill="#584BD4"/>
</svg>
