<svg width="60" height="60" viewBox="0 0 60 60" fill="none" xmlns="http://www.w3.org/2000/svg">
<rect width="60" height="60" rx="30" fill="#EEEDFB"/>
<path opacity="0.4" d="M45.0832 26.125V37.0042C45.0832 40.3437 42.3707 43.0417 39.0311 43.0417H21.9686C18.629 43.0417 15.9165 40.3437 15.9165 37.0042V26.125H45.0832Z" fill="#584BD4"/>
<path d="M45.0832 23.9958V26.125H15.9165V23.9958C15.9165 20.6563 18.629 17.9583 21.9686 17.9583H39.0311C42.3707 17.9583 45.0832 20.6563 45.0832 23.9958Z" fill="#584BD4"/>
<path d="M24.6667 38.1562H21.75C21.1521 38.1562 20.6562 37.6604 20.6562 37.0625C20.6562 36.4646 21.1521 35.9688 21.75 35.9688H24.6667C25.2646 35.9688 25.7604 36.4646 25.7604 37.0625C25.7604 37.6604 25.2646 38.1562 24.6667 38.1562Z" fill="#584BD4"/>
<path d="M34.1458 38.1562H28.3125C27.7146 38.1562 27.2188 37.6604 27.2188 37.0625C27.2188 36.4646 27.7146 35.9688 28.3125 35.9688H34.1458C34.7438 35.9688 35.2396 36.4646 35.2396 37.0625C35.2396 37.6604 34.7438 38.1562 34.1458 38.1562Z" fill="#584BD4"/>
</svg>
