<svg width="60" height="61" viewBox="0 0 60 61" fill="none" xmlns="http://www.w3.org/2000/svg">
<rect y="0.5" width="60" height="60" rx="30" fill="#EEEDFB"/>
<path opacity="0.4" d="M40.625 28.2375H37.0125C34.05 28.2375 31.6375 25.825 31.6375 22.8625V19.25C31.6375 18.5625 31.075 18 30.3875 18H25.0875C21.2375 18 18.125 20.5 18.125 24.9625V36.0375C18.125 40.5 21.2375 43 25.0875 43H34.9125C38.7625 43 41.875 40.5 41.875 36.0375V29.4875C41.875 28.8 41.3125 28.2375 40.625 28.2375Z" fill="#584BD4"/>
<path d="M34.7496 18.2625C34.2371 17.75 33.3496 18.1 33.3496 18.8125V23.175C33.3496 25 34.8996 26.5125 36.7871 26.5125C37.9746 26.525 39.6246 26.525 41.0371 26.525C41.7496 26.525 42.1246 25.6875 41.6246 25.1875C39.8246 23.375 36.5996 20.1125 34.7496 18.2625Z" fill="#584BD4"/>
<path d="M29.4123 31.0875L26.9123 28.5875C26.8998 28.575 26.8873 28.575 26.8873 28.5625C26.8123 28.4875 26.7123 28.425 26.6123 28.375C26.5998 28.375 26.5998 28.375 26.5873 28.375C26.4873 28.3375 26.3873 28.325 26.2873 28.3125C26.2498 28.3125 26.2248 28.3125 26.1873 28.3125C26.1123 28.3125 26.0248 28.3375 25.9498 28.3625C25.9123 28.375 25.8873 28.3875 25.8623 28.4C25.7623 28.45 25.6623 28.5 25.5873 28.5875L23.0873 31.0875C22.7248 31.45 22.7248 32.05 23.0873 32.4125C23.4498 32.775 24.0498 32.775 24.4123 32.4125L25.3123 31.5125V36.75C25.3123 37.2625 25.7373 37.6875 26.2498 37.6875C26.7623 37.6875 27.1873 37.2625 27.1873 36.75V31.5125L28.0873 32.4125C28.2748 32.6 28.5123 32.6875 28.7498 32.6875C28.9873 32.6875 29.2248 32.6 29.4123 32.4125C29.7748 32.05 29.7748 31.45 29.4123 31.0875Z" fill="#584BD4"/>
</svg>
